# xmcd
#
# Track frame offsets: 
#        150
#        15337
#        32850
#        56250
#        72825
#        90000
#        112050
#        131137
#        152550
#        168262
#
# Disc length: 2433 seconds
#
# Revision: 6
# Processed by: cddbd v1.5.2PL0 Copyright (c) Steve Scherf et al.
# Submitted via: ExactAudioCopy v1.0b1
#
DISCID=71097f0a
DTITLE=Mississippi John Hurt - Worried Blues
DYEAR=1963
DGENRE=Blues
TTITLE0=Lazy Blues
TTITLE1=Farther Along
TTITLE2=Sliding Delta
TTITLE3=Nobody Cares For Me
TTITLE4=Cow Hooking Blues No. 2
TTITLE5=Talking Casey
TTITLE6=Weeping And Wailing
TTITLE7=Worried Blues
TTITLE8=Oh Mary, Don't You Weep
TTITLE9=I Been Cryin' Since You Been Gone
EXTD=
EXTT0=
EXTT1=
EXTT2=
EXTT3=
EXTT4=
EXTT5=
EXTT6=
EXTT7=
EXTT8=
EXTT9=
PLAYORDER=
